<?xml version="1.0" encoding="UTF-8" standalone="no"?>
<!-- Created with Inkscape (http://www.inkscape.org/) -->

<svg
   version="1.1"
   id="svg1"
   width="2000"
   height="2000"
   viewBox="0 0 2000 2000"
   sodipodi:docname="qr link to linktree H30.png"
   inkscape:version="1.4.2 (f4327f4, 2025-05-13)"
   xmlns:inkscape="http://www.inkscape.org/namespaces/inkscape"
   xmlns:sodipodi="http://sodipodi.sourceforge.net/DTD/sodipodi-0.dtd"
   xmlns="http://www.w3.org/2000/svg"
   xmlns:svg="http://www.w3.org/2000/svg">
  <defs
     id="defs1" />
  <sodipodi:namedview
     id="namedview1"
     pagecolor="#ffffff"
     bordercolor="#000000"
     borderopacity="0.25"
     inkscape:showpageshadow="2"
     inkscape:pageopacity="0.0"
     inkscape:pagecheckerboard="0"
     inkscape:deskcolor="#d1d1d1"
     inkscape:zoom="0.5835"
     inkscape:cx="1000"
     inkscape:cy="1000"
     inkscape:window-width="2560"
     inkscape:window-height="1369"
     inkscape:window-x="-8"
     inkscape:window-y="-8"
     inkscape:window-maximized="1"
     inkscape:current-layer="g1" />
  <g
     inkscape:groupmode="layer"
     inkscape:label="Image"
     id="g1">
    <path
       style="fill:#000000"
       d="M 178,1667.5 V 1512 H 333.5 489 V 1667.5 1823 H 333.5 178 Z M 445,1667 V 1556 H 334 223 v 111 111 h 111 111 z m -178,0 v -67 h 66.5 66.5 v 67 67 H 333.5 267 Z m 356,133.5 V 1778 H 600.5 578 v -44.5 -44.5 h -22 -22 v -44.5 -44.5 h 66.5 66.5 v 22.5 22.5 h 22.5 22.5 v -22.5 -22.5 h 22 22 v -22 -22 H 734 712 V 1511.5 1467 H 689.5 667 v 22.5 22.5 h -22 -22 v 22 22 H 578.5 534 v -44.5 -44.5 h 22 22 v -22 -22 H 556 534 V 1400.5 1378 H 489.5 445 v -22 -22 H 489.5 534 V 1311.5 1289 H 489.5 445 v -22 -22 h 22 22 V 1222.5 1200 H 444.5 400 v 22.5 22.5 h -22 -22 v 22 22 h 22 22 v 67 67 h -22 -22 v 22 22 H 311.5 267 v -44.5 -44.5 h -22 -22 v 44.5 44.5 H 200.5 178 v -111 -111 h 22.5 22.5 v 44.5 44.5 h 22 22 v -22.5 -22.5 h 22.5 22.5 v -22 -22 h 22 22 v -44.5 -44.5 h 66.5 66.5 v 22 22 h 44.5 44.5 v -22 -22 h 22.5 22.5 v 44.5 44.5 H 578.5 534 v 22 22 h 22 22 v 44.5 44.5 h 22.5 22.5 v -22 -22 h 22 22 v -22.5 -22.5 h 22.5 22.5 v -22 -22 H 689.5 667 v -44.5 -44.5 h 44.5 44.5 v 22 22 h 89 89 v -44 -44 H 911.5 889 v 22 22 H 844.5 800 v -22 -22 H 822.5 845 V 1089.5 1067 H 822.5 800 v -22 -22 H 822.5 845 V 978.5 934 H 800.5 756 v 44.5 44.5 h -22 -22 v 22 22 h 22 22 v 22.5 22.5 H 734 712 V 1089.5 1067 H 689.5 667 v 22.5 22.5 H 645 623 V 1089.5 1067 H 600.5 578 V 1022.5 978 H 600.5 623 V 933.5 889 h 44.5 44.5 v 22.5 22.5 h 22 22 V 911.5 889 H 800.5 845 V 867 845 H 822.5 800 V 822.5 800 H 822.5 845 V 778 756 H 800.5 756 V 800.5 845 H 734 712 V 822.5 800 H 689.5 667 V 822.5 845 H 645 623 V 822.5 800 H 600.5 578 v 67 67 H 511.5 445 v 22 22 h 44.5 44.5 v 67 67 H 489.5 445 V 1089.5 1067 H 422.5 400 v 22.5 22.5 H 378 356 V 1067.5 1023 H 334 312 V 1000.5 978 h 22 22 V 956 934 H 400.5 445 V 911.5 889 H 422.5 400 v -22 -22 h -22 -22 v 22 22 H 334 312 V 911.5 934 H 289.5 267 v 22 22 H 222.5 178 V 956 934 H 222.5 267 V 911.5 889 H 289.5 312 V 844.5 800 H 289.5 267 V 778 756 H 245 223 V 734 712 H 200.5 178 V 689.5 667 H 200.5 223 V 645 623 H 200.5 178 V 600.5 578 h 22.5 22.5 v 22.5 22.5 h 22 22 V 600.5 578 h 22.5 22.5 v -22 -22 h 44 44 v 22 22 h 22.5 22.5 v -22 -22 h 44.5 44.5 v 22 22 h 22 22 V 556 534 H 600.5 623 V 489.5 445 H 600.5 578 v 22 22 h -22 -22 v -22 -22 h 22 22 V 422.5 400 H 600.5 623 V 378 356 H 711.5 800 V 334 312 H 756 712 V 289.5 267 H 645 578 V 311.5 356 H 556 534 V 311.5 267 h 22 22 V 222.5 178 h 67 67 v 44.5 44.5 h 22 22 v -22 -22 h 22 22 V 200.5 178 h 89 89 v 22.5 22.5 h 22.5 22.5 v 22 22 H 1000.5 978 v -22 -22 h -22 -22 v 22 22 H 911.5 889 V 245 223 H 867 845 V 289.5 356 H 822.5 800 v 22 22 H 822.5 845 V 511.5 623 H 889.5 934 V 578.5 534 h 22 22 V 489.5 445 h -22 -22 v 22 22 H 911.5 889 V 467 445 H 911.5 934 V 422.5 400 H 911.5 889 v -44 -44 h 22.5 22.5 v 44 44 h 22 22 v -44 -44 h 22.5 22.5 v 111 111 h 22 22 v 66.5 66.5 h 22.5 22.5 v -22 -22 h 44 44 V 600.5 578 h 44.5 44.5 V 533.5 489 h -22 -22 v 22.5 22.5 h -44.5 -44.5 v 22 22 h -22 -22 V 533.5 489 h -22.5 -22.5 v -22 -22 h 22.5 22.5 V 378.5 312 H 1089.5 1067 V 267.5 223 h 22.5 22.5 v 22 22 h 44 44 V 222.5 178 h 22.5 22.5 v 67 67 h 22 22 V 289.5 267 h 22.5 22.5 v 44.5 44.5 h 22 22 v 22 22 h -22 -22 v -22 -22 h -44.5 -44.5 v -22 -22 h -22.5 -22.5 v 44 44 h -22 -22 v 22.5 22.5 h 22 22 v 22 22 h 22.5 22.5 v -22 -22 h 22 22 v 22 22 h 22.5 22.5 v -22 -22 h 22 22 v 22 22 h 22.5 22.5 v -22 -22 h 22 22 v 66.5 66.5 h 44.5 44.5 v 22.5 22.5 h 22 22 V 600.5 578 h 22.5 22.5 v -22 -22 h 44.5 44.5 v 44.5 44.5 h -44.5 -44.5 v 22 22 h -44.5 -44.5 v 22.5 22.5 h 22 22 v 22 22 h 22.5 22.5 v -22 -22 h 22 22 V 689.5 667 h 44.5 44.5 v -22 -22 h 22.5 22.5 v 22 22 h -22.5 -22.5 v 22.5 22.5 h -44.5 -44.5 v 22 22 h 22.5 22.5 v 22 22 h 44.5 44.5 v 22.5 22.5 h -44.5 -44.5 v 44.5 44.5 h 22 22 V 911.5 889 h 22.5 22.5 v 22.5 22.5 h -22.5 -22.5 v 22 22 h 22.5 22.5 v 22.5 22.5 h -22.5 -22.5 v 22 22 h 22.5 22.5 v 22.5 22.5 h -22.5 -22.5 v -22.5 -22.5 h -22 -22 v -22 -22 h -22.5 -22.5 v 66.5 66.5 h 22.5 22.5 v 44.5 44.5 h -44.5 -44.5 v 22 22 h 44.5 44.5 v 22.5 22.5 h -44.5 -44.5 v 22 22 h -22.5 -22.5 v 22.5 22.5 h 44.5 44.5 v -22.5 -22.5 h 22.5 22.5 v 22.5 22.5 h -22.5 -22.5 v 22 22 h 44.5 44.5 v -66.5 -66.5 h 22.5 22.5 v 66.5 66.5 h -22.5 -22.5 v 22.5 22.5 h 22.5 22.5 v 22 22 h -22.5 -22.5 v -22 -22 h -22 -22 v 22 22 h -22.5 -22.5 v 22 22 h -22 -22 v 22.5 22.5 h 22 22 v 22 22 h 67 67 v 67 67 h -22.5 -22.5 v -22.5 -22.5 h -44.5 -44.5 v 22.5 22.5 h -66.5 -66.5 v -22.5 -22.5 h -22 -22 v 22.5 22.5 h -44.5 -44.5 v -22.5 -22.5 h 22 22 v -22 -22 h -22 -22 v -44.5 -44.5 h -44.5 -44.5 v -22.5 -22.5 h -67 -67 v 22.5 22.5 h -22 -22 v 22 22 h 44.5 44.5 v -22 -22 h 22 22 v 22 22 h -22 -22 v 22.5 22.5 h 22 22 v 22 22 h -22 -22 v 22.5 22.5 h -22.5 -22.5 v -44.5 -44.5 h -22 -22 v 22 22 h -22 -22 v 22.5 22.5 h -22.5 -22.5 v -22.5 -22.5 h -22 -22 v 22.5 22.5 H 978.5 934 V 1800.5 1778 H 911.5 889 v -22 -22 h -22 -22 v 44.5 44.5 H 800.5 756 v -22.5 -22.5 h -22 -22 v -22 -22 H 689.5 667 v 44.5 44.5 H 645 623 Z M 800,1756 v -22 h -22 -22 v -22.5 -22.5 h -22 -22 v 22.5 22.5 h 22 22 v 22 22 h 22 22 z m 223,0 v -22 h 22 22 v 22 22 h 22.5 22.5 v -44.5 -44.5 h -67 -67 v 22.5 22.5 h -22 -22 v 22 22 h 44.5 44.5 z m 577,0 v -22 h -22 -22 v -22.5 -22.5 h 44.5 44.5 v -22 -22 h -44.5 -44.5 v 22 22 h -22 -22 v -22 -22 h -22.5 -22.5 v 44.5 44.5 h 44.5 44.5 v 22 22 h 22 22 z M 667,1711.5 V 1689 h -22 -22 v 22.5 22.5 h 22 22 z m 222,-67 V 1600 h 22.5 22.5 v -22 -22 h 22 22 v 22 22 h 22.5 22.5 v 22.5 22.5 h 22 22 v -22.5 -22.5 h -22 -22 v -22 -22 h 44.5 44.5 v -44.5 -44.5 h 22 22 v 22.5 22.5 h 66.5 66.5 v 22 22 h 22.5 22.5 v 22 22 h 22 22 v -22 -22 h 22.5 22.5 v -44.5 -44.5 h -22.5 -22.5 v -22 -22 h 22.5 22.5 v -22.5 -22.5 h 44.5 44.5 v 22.5 22.5 h 22 22 v -22.5 -22.5 h -22 -22 v -44.5 -44.5 h 22 22 v 22.5 22.5 h 44.5 44.5 v -22.5 -22.5 h -44.5 -44.5 v -44.5 -44.5 h 22 22 v 22.5 22.5 h 22.5 22.5 v -22.5 -22.5 h 22 22 v -22 -22 h -22 -22 v 22 22 h -22.5 -22.5 v -22 -22 h -22 -22 v -22 -22 h 22 22 v -44.5 -44.5 h -22 -22 V 978.5 934 h 22 22 v 22 22 h 22.5 22.5 v 22.5 22.5 h 22 22 V 1000.5 978 h 22.5 22.5 v 22.5 22.5 h 22 22 V 1000.5 978 h -22 -22 V 956 934 H 1711.5 1689 V 911.5 889 h -66.5 -66.5 v 22.5 22.5 h -22 -22 V 911.5 889 h -44.5 -44.5 v -22 -22 h 22 22 V 822.5 800 h -22 -22 V 822.5 845 H 1400.5 1378 V 822.5 800 h -22 -22 v -22 -22 h 44.5 44.5 v -22 -22 h 22 22 v 22 22 h 22.5 22.5 v 22 22 h 22 22 v 22.5 22.5 h 22 22 V 822.5 800 h -22 -22 v -22 -22 h -22 -22 v -22 -22 h -22.5 -22.5 v -67 -67 h -22 -22 V 556 534 H 1400.5 1378 V 511.5 489 h -22 -22 v 89 89 h -22.5 -22.5 v -22 -22 h -44.5 -44.5 v 22 22 h 44.5 44.5 v 66.5 66.5 h -22 -22 v -44 -44 h -22.5 -22.5 v 22 22 h -22 -22 v 44.5 44.5 h -22 -22 V 822.5 800 h -44.5 -44.5 v 89 89 h 22 22 v 44.5 44.5 h -22 -22 v -22 -22 H 1000.5 978 v 22 22 h -22 -22 v 22.5 22.5 h 22 22 v 22 22 h 22.5 22.5 v 44.5 44.5 H 1000.5 978 v 44.5 44.5 h 22.5 22.5 v 22 22 h -67 -67 v -22 -22 h 22.5 22.5 v -44.5 -44.5 h -89 -89 v -22.5 -22.5 h -22 -22 v 22.5 22.5 h 22 22 v 22 22 h -22 -22 v 22.5 22.5 H 689.5 667 v 22 22 h -22 -22 v 44.5 44.5 h 22 22 v -44.5 -44.5 h 22.5 22.5 v -22 -22 h 44 44 v -22.5 -22.5 h 22.5 22.5 v 44.5 44.5 h 22 22 v 22.5 22.5 H 822.5 756 v 66.5 66.5 h 44.5 44.5 v 44.5 44.5 H 822.5 800 v -22.5 -22.5 h -22 -22 v 22.5 22.5 h 22 22 v 22 22 h 44.5 44.5 z m 0,-155 V 1423 h 67 67 v -22.5 -22.5 h 22 22 v -44.5 -44.5 h -22 -22 v -22 -22 h 22 22 v -44.5 -44.5 h 22.5 22.5 v 44.5 44.5 h 22 22 v 66.5 66.5 h -22 -22 v 22.5 22.5 h -44.5 -44.5 v 66.5 66.5 H 1000.5 978 v -22 -22 h -22 -22 v 22 22 H 911.5 889 Z m 445,22 V 1467 h -44.5 -44.5 v -22 -22 h -22.5 -22.5 v -44.5 -44.5 h 44.5 44.5 v -22.5 -22.5 h -22 -22 v -22 -22 h -22.5 -22.5 v -22.5 -22.5 h -22 -22 v -44 -44 h -22 -22 v -67 -67 h 22 22 V 956 934 H 1111.5 1067 V 889.5 845 h 22.5 22.5 v 22 22 h 44 44 V 844.5 800 h 22.5 22.5 v 44.5 44.5 h -22.5 -22.5 v 44.5 44.5 h 22.5 22.5 v 22.5 22.5 h -22.5 -22.5 v 22 22 h 22.5 22.5 v 44.5 44.5 h 22 22 v -22 -22 h 22.5 22.5 v -22.5 -22.5 h -22.5 -22.5 v -22 -22 h 22.5 22.5 V 1000.5 978 H 1311.5 1289 V 933.5 889 h 22.5 22.5 v 22.5 22.5 h 44.5 44.5 v 44.5 44.5 h 44.5 44.5 v 22 22 h 22 22 v 22.5 22.5 h -44.5 -44.5 v 22 22 h -22 -22 v 22 22 h 44.5 44.5 v 22.5 22.5 h -67 -67 v -66.5 -66.5 h -22 -22 v 88.5 88.5 h 22 22 v 22.5 22.5 h 22.5 22.5 v 22 22 h -89 -89 v 22.5 22.5 h 44.5 44.5 v 22 22 h 22 22 v 44.5 44.5 h -22 -22 z m -45,-289 V 1200 h -22 -22 v 22.5 22.5 h 22 22 z m -89,-133 V 1067 h -22 -22 v 22.5 22.5 h 22 22 z m 178,-44.5 v -22 h -22 -22 v 22 22 h 22 22 z M 800,1489.5 V 1467 h 22.5 22.5 v 22.5 22.5 H 822.5 800 Z m 489,-667 V 800 h 22.5 22.5 v 22.5 22.5 h -22.5 -22.5 z m 45,-133 V 667 h 44.5 44.5 V 689.5 712 H 1378.5 1334 Z M 1200,1578 v -22 h -22 -22 v 22 22 h 22 22 z m 400,-44.5 V 1467 h -66.5 -66.5 v 66.5 66.5 h 66.5 66.5 z m -88,0.5 v -22 h 22 22 v 22 22 h -22 -22 z M 356,1378.5 V 1334 H 311.5 267 v 22 22 h 22.5 22.5 v 22.5 22.5 h 22 22 z M 489,1045 v -22 H 467 445 V 1000.5 978 H 400.5 356 v 22.5 22.5 h 44.5 44.5 v 22 22 h 22 22 z m 223,-44.5 V 978 H 667.5 623 v 22.5 22.5 h 44.5 44.5 z m 222,0 V 978 h 22 22 V 956 934 H 956 934 V 889.5 845 H 911.5 889 V 822.5 800 h 22.5 22.5 v -22 -22 h 22 22 v -22 -22 h 44.5 44.5 v 22 22 h 22.5 22.5 V 734 712 H 1089.5 1067 V 689.5 667 h -22 -22 V 645 623 H 1000.5 978 V 667.5 712 H 933.5 889 v 44 44 h -22 -22 v 22.5 22.5 h 22 22 v 44.5 44.5 h 22.5 22.5 v 22 22 H 911.5 889 v 22.5 22.5 H 911.5 934 Z M 489,867 V 845 H 511.5 534 V 822.5 800 H 511.5 489 v -22 -22 h -22 -22 v -22 -22 h 22 22 V 689.5 667 h 22.5 22.5 v 44.5 44.5 h 22 22 V 711.5 667 h 67 67 V 689.5 712 H 689.5 667 v 22 22 h -22 -22 v 22 22 h 22 22 v -22 -22 h 22.5 22.5 v -22 -22 h 22 22 V 689.5 667 H 734 712 V 622.5 578 H 689.5 667 V 600.5 623 H 578 489 V 600.5 578 h -22 -22 v 22.5 22.5 h 22 22 v 22 22 H 467 445 V 689.5 712 H 378.5 312 V 689.5 667 h 44 44 V 622.5 578 h -22 -22 v 22.5 22.5 h -22 -22 v 22 22 H 289.5 267 v 44.5 44.5 h 44.5 44.5 v 22 22 h 22 22 v 22.5 22.5 h 22.5 22.5 v 22 22 h 22 22 z M 445,822.5 V 800 h 22 22 V 822.5 845 H 467 445 Z M 1689,778 v -22 h -22 -22 v 22 22 h 22 22 z M 845,689.5 V 667 H 822.5 800 V 689.5 712 H 822.5 845 Z M 800,556 V 534 H 778 756 V 511.5 489 h 22 22 V 444.5 400 H 778 756 V 444.5 489 H 734 712 V 467 445 H 689.5 667 v 22 22 h 22.5 22.5 v 22.5 22.5 h 22 22 v 22 22 h 22 22 z m 356,-89 v -22 h -22 -22 v 22 22 h 22 22 z m 622,1155.5 V 1600 h 22.5 22.5 v 22.5 22.5 H 1800.5 1778 Z M 445,1445 v -22 h 22 22 v 22 22 H 467 445 Z M 1778,1222.5 V 1156 h 22.5 22.5 v 66.5 66.5 H 1800.5 1778 Z M 223,1178 v -22 H 200.5 178 v -66.5 -66.5 h 44.5 44.5 v 22 22 h -22 -22 v 22.5 22.5 h 22 22 v 44 44 H 245 223 Z M 178,333.5 V 178 H 333.5 489 V 333.5 489 H 333.5 178 Z M 445,334 V 223 H 334 223 V 334 445 H 334 445 Z M 267,333.5 V 267 H 333.5 400 V 333.5 400 H 333.5 267 Z m 1245,0 V 178 H 1667.5 1823 V 333.5 489 H 1667.5 1512 Z m 266,0.5 V 223 h -111 -111 v 111 111 h 111 111 z m -178,-0.5 V 267 h 67 67 v 66.5 66.5 h -67 -67 z M 1423,334 V 312 H 1400.5 1378 V 289.5 267 h 22.5 22.5 v -22 -22 h 22 22 v 22 22 h -22 -22 v 22.5 22.5 h 22 22 v 22 22 h -22 -22 z M 1334,200.5 V 178 h 22 22 v 22.5 22.5 h -22 -22 z"
       id="path1" />
  </g>
</svg>
