<?xml version="1.0" encoding="UTF-8" standalone="no"?>
<!-- Created with Inkscape (http://www.inkscape.org/) -->

<svg
   version="1.1"
   id="svg1"
   width="2000"
   height="2000"
   viewBox="0 0 2000 2000"
   sodipodi:docname="qr link to instagram H30 stl.svg"
   inkscape:version="1.4.2 (f4327f4, 2025-05-13)"
   xmlns:inkscape="http://www.inkscape.org/namespaces/inkscape"
   xmlns:sodipodi="http://sodipodi.sourceforge.net/DTD/sodipodi-0.dtd"
   xmlns="http://www.w3.org/2000/svg"
   xmlns:svg="http://www.w3.org/2000/svg">
  <defs
     id="defs1" />
  <sodipodi:namedview
     id="namedview1"
     pagecolor="#ffffff"
     bordercolor="#000000"
     borderopacity="0.25"
     inkscape:showpageshadow="2"
     inkscape:pageopacity="0.0"
     inkscape:pagecheckerboard="0"
     inkscape:deskcolor="#d1d1d1"
     inkscape:zoom="0.5835"
     inkscape:cx="1000"
     inkscape:cy="1000"
     inkscape:window-width="2560"
     inkscape:window-height="1369"
     inkscape:window-x="-8"
     inkscape:window-y="-8"
     inkscape:window-maximized="1"
     inkscape:current-layer="g1" />
  <g
     inkscape:groupmode="layer"
     inkscape:label="Image"
     id="g1">
    <path
       style="fill:#000000"
       d="M 164,1694.5 V 1552 H 306.5 449 V 1694.5 1837 H 306.5 164 Z M 409,1694 V 1592 H 307 205 v 102 102 h 102 102 z m -164,0.5 V 1633 h 61.5 61.5 v 61.5 61.5 H 306.5 245 Z m 286,122 V 1796 H 551.5 572 V 1755.5 1715 H 551.5 531 v 20.5 20.5 H 510.5 490 V 1694.5 1633 H 510.5 531 V 1592.5 1552 H 510.5 490 V 1531.5 1511 H 510.5 531 V 1490.5 1470 H 551.5 572 V 1449.5 1429 H 490.5 409 v 20.5 20.5 h 20 20 v 20.5 20.5 h -61 -61 v -41 -41 h -41 -41 v -20.5 -20.5 h -20 -20 v 61.5 61.5 H 184.5 164 v -102 -102 h 61 61 V 1286.5 1266 H 225 164 V 1245.5 1225 H 184.5 205 V 1204.5 1184 H 184.5 164 v -20.5 -20.5 h 20.5 20.5 v -20 -20 H 184.5 164 v -20.5 -20.5 h 20.5 20.5 v 20.5 20.5 h 20 20 v -41 -41 h -20 -20 v -41 -41 h 20 20 V 918.5 898 H 204.5 164 V 878 858 H 184.5 205 V 817 776 H 184.5 164 V 755.5 735 H 204.5 245 V 714.5 694 H 225 205 V 674 654 H 184.5 164 v -41 -41 h 20.5 20.5 v 20.5 20.5 h 20 20 V 551.5 490 h 61.5 61.5 v 41 41 h -41 -41 v 41 41 H 306.5 327 V 633.5 613 H 347.5 368 V 633.5 654 H 408.5 449 V 633.5 613 H 429 409 V 592.5 572 h 20 20 V 551.5 531 H 429 409 V 510.5 490 h 20 20 V 510.5 531 H 469.5 490 V 449.5 368 h 41 41 V 347.5 327 H 592.5 613 V 306.5 286 H 551.5 490 v -61 -61 h 20.5 20.5 v 20.5 20.5 h 61.5 61.5 v 20 20 H 633.5 613 v 20.5 20.5 h 61 61 V 265.5 245 H 755.5 776 V 225 205 H 755.5 735 V 184.5 164 H 755.5 776 V 184.5 205 H 796.5 817 V 184.5 164 h 81.5 81.5 v 20.5 20.5 h 41 41 v 20 20 h 20.5 20.5 v 20.5 20.5 h 20 20 V 265.5 245 h 20.5 20.5 V 204.5 164 h 20.5 20.5 v 20.5 20.5 h 41 41 V 184.5 164 h 20 20 v 20.5 20.5 h -20 -20 v 20 20 h 20 20 V 265.5 286 H 1306.5 1266 V 306.5 327 H 1245.5 1225 V 306.5 286 h -20.5 -20.5 v 20.5 20.5 h -20.5 -20.5 v 20.5 20.5 h 41 41 v 20.5 20.5 h 20.5 20.5 V 388.5 368 h 20.5 20.5 V 347.5 327 h 20 20 v 20.5 20.5 h 20.5 20.5 v 20.5 20.5 h 20.5 20.5 v 20 20 h 20.5 20.5 V 408.5 368 H 1449.5 1429 V 347.5 327 H 1408.5 1388 V 306.5 286 h 20.5 20.5 V 265.5 245 h -20.5 -20.5 v -20 -20 h 20.5 20.5 V 184.5 164 h 41 41 v 40.5 40.5 h -20.5 -20.5 v 20.5 20.5 h -20.5 -20.5 v 20.5 20.5 h 41 41 v 61 61 h -20.5 -20.5 v 20.5 20.5 h 81.5 81.5 v 20.5 20.5 h 20.5 20.5 v 20.5 20.5 h -61 -61 v 20.5 20.5 h -20.5 -20.5 v 20.5 20.5 h 20.5 20.5 v 20 20 h -20.5 -20.5 v 20.5 20.5 h 20.5 20.5 v 20.5 20.5 h 20 20 v 20.5 20.5 h 20.5 20.5 V 796.5 776 h 41 41 v 20.5 20.5 h 61 61 v 40.5 40.5 h -20.5 -20.5 v -20 -20 h -20 -20 v 40.5 40.5 h -20.5 -20.5 v 20.5 20.5 h 40.5 40.5 V 959.5 939 h 20.5 20.5 v 20.5 20.5 h -20.5 -20.5 v 20.5 20.5 h 20.5 20.5 v 20.5 20.5 h -61 -61 v -41 -41 h -20.5 -20.5 v 20.5 20.5 h -20.5 -20.5 v 20.5 20.5 H 1510.5 1388 v 20.5 20.5 h -20.5 -20.5 v 20 20 h 20.5 20.5 v 41 41 h -40.5 -40.5 v 20.5 20.5 h 20 20 v 20.5 20.5 h 41 41 v -20.5 -20.5 h 20.5 20.5 v -20.5 -20.5 h -20.5 -20.5 v -61 -61 h 41 41 v 20 20 h -20.5 -20.5 v 41 41 h 20.5 20.5 v -20.5 -20.5 h 40.5 40.5 v -20.5 -20.5 h -20 -20 v -20 -20 h 40.5 40.5 v 40.5 40.5 h 41 41 v -20.5 -20.5 h 20.5 20.5 v 20.5 20.5 h 20 20 v -40.5 -40.5 h 20.5 20.5 v 61 61 h -40.5 -40.5 v -20.5 -20.5 h -20.5 -20.5 v 20.5 20.5 h -20.5 -20.5 v 20.5 20.5 h 20.5 20.5 v 20.5 20.5 h 61 61 v 40.5 40.5 h -40.5 -40.5 v -20.5 -20.5 h -41 -41 v 20.5 20.5 h 20.5 20.5 v 41 41 h 20.5 20.5 v -20.5 -20.5 h 40.5 40.5 v 20.5 20.5 h -40.5 -40.5 v 20.5 20.5 h -20.5 -20.5 v 20.5 20.5 h -20.5 -20.5 v 20 20 h 20.5 20.5 v 20.5 20.5 h 20.5 20.5 v -20.5 -20.5 h 40.5 40.5 v 61.5 61.5 h -20.5 -20.5 v 40.5 40.5 h -20 -20 v -20 -20 h -41 -41 v 40.5 40.5 h -41 -41 v -20.5 -20.5 h -20 -20 v -20 -20 h -20.5 -20.5 v 20 20 h -20.5 -20.5 v -20 -20 h -20.5 -20.5 v -41 -41 h -20.5 -20.5 v -20.5 -20.5 h 20.5 20.5 v -20.5 -20.5 h -20.5 -20.5 v -20 -20 h 41 41 v -41 -41 h 20.5 20.5 v -20.5 -20.5 h -20.5 -20.5 v -20.5 -20.5 h 20.5 20.5 v -20.5 -20.5 h -41 -41 v 61.5 61.5 h -20.5 -20.5 v 20.5 20.5 h -20.5 -20.5 v 61 61 h -20 -20 v 20.5 20.5 h 20 20 v 20.5 20.5 h 20.5 20.5 v 20.5 20.5 h -20.5 -20.5 v 20 20 h 41 41 v 20.5 20.5 h -41 -41 v -20.5 -20.5 h -20 -20 v -20 -20 h -41 -41 v 40.5 40.5 h -20.5 -20.5 v -40.5 -40.5 h -61 -61 v 20 20 h -20.5 -20.5 v -20 -20 H 1000.5 980 v -41 -41 H 959.5 939 v -41 -41 H 918.5 898 v 41 41 h -20 -20 v -41 -41 h 20 20 v -20 -20 H 857.5 817 v -41 -41 h 20.5 20.5 v -20.5 -20.5 h 20 20 v 20.5 20.5 h 20.5 20.5 v -41 -41 H 898.5 858 V 1367.5 1347 H 837.5 817 v -20 -20 h 20.5 20.5 v -41 -41 H 837.5 817 v -81.5 -81.5 h 20.5 20.5 v 20.5 20.5 h 20 20 v 20 20 h -20 -20 v 41 41 H 898.5 939 V 1143.5 1062 H 959.5 980 V 1041.5 1021 H 878 776 v 20.5 20.5 H 694.5 613 V 1041.5 1021 H 592.5 572 V 1000.5 980 H 551.5 531 v 41 41 H 510.5 490 v -41 -41 H 469.5 449 v 20.5 20.5 H 429 409 V 1000.5 980 H 388.5 368 v 20.5 20.5 H 347.5 327 V 1000.5 980 H 306.5 286 v 61.5 61.5 h 20.5 20.5 v -20.5 -20.5 h 20.5 20.5 v 40.5 40.5 h -41 -41 v 20.5 20.5 h 20.5 20.5 v 20.5 20.5 h 20.5 20.5 v 20.5 20.5 h 20.5 20.5 v -20.5 -20.5 h 40.5 40.5 v 41 41 H 551.5 613 V 1286.5 1266 H 592.5 572 v -41 -41 h 20.5 20.5 v 20.5 20.5 h 20.5 20.5 v 81.5 81.5 h 20 20 v 20.5 20.5 h 20.5 20.5 v -20.5 -20.5 h 41 41 v 20.5 20.5 h -41 -41 v 20.5 20.5 h 20.5 20.5 v 81.5 81.5 h 20.5 20.5 v 20.5 20.5 h -41 -41 v 61 61 H 714.5 694 v 20.5 20.5 h -20 -20 v -20.5 -20.5 h -41 -41 v 20.5 20.5 H 551.5 531 Z M 1633,1776 v -20 h -20.5 -20.5 v 20 20 h 20.5 20.5 z m -408,-61 v -41 h 20.5 20.5 v 20.5 20.5 h 20.5 20.5 v -20.5 -20.5 h -20.5 -20.5 v -20.5 -20.5 h -20.5 -20.5 v 20.5 20.5 h -20.5 -20.5 v 41 41 h 20.5 20.5 z m 286,0 v -41 h -20.5 -20.5 v -20.5 -20.5 h -20.5 -20.5 v 20.5 20.5 h 20.5 20.5 v 41 41 h 20.5 20.5 z M 613,1694.5 V 1674 H 592.5 572 v 20.5 20.5 h 20.5 20.5 z m 979,0 V 1674 h -20 -20 v 20.5 20.5 h 20 20 z m 82,0 V 1674 h 20.5 20.5 v -20.5 -20.5 h -20.5 -20.5 v 20.5 20.5 h -20.5 -20.5 v 20.5 20.5 h 20.5 20.5 z m -939,-41 V 1633 H 714.5 694 v -61 -61 H 714.5 735 V 1490.5 1470 H 694.5 654 v 61 61 H 633.5 613 v -20 -20 H 592.5 572 V 1531.5 1511 H 592.5 613 V 1490.5 1470 H 592.5 572 v 20.5 20.5 H 551.5 531 v 20.5 20.5 h 20.5 20.5 v 40.5 40.5 h 41 41 v 20.5 20.5 h 40.5 40.5 z m 368,0 V 1633 h 40.5 40.5 v -20.5 -20.5 h -20.5 -20.5 v -20 -20 h -20 -20 v 40.5 40.5 H 1041.5 980 v 20.5 20.5 h 61.5 61.5 z m 693,0 V 1633 h -20 -20 v 20.5 20.5 h 20 20 z M 1633,1572 v -61 h -61 -61 v 61 61 h 61 61 z m -81,0 v -20 h 20 20 v 20 20 h -20 -20 z m -572,0 v -20 h 41 41 v -20.5 -20.5 h 20.5 20.5 v -20.5 -20.5 h 20 20 v -20.5 -20.5 h 20.5 20.5 v 20.5 20.5 h 20.5 20.5 v 41 41 h 41 41 v -20.5 -20.5 h 20 20 v -20.5 -20.5 h 20.5 20.5 v -20.5 -20.5 h -20.5 -20.5 v -20.5 -20.5 h -40.5 -40.5 v -20.5 -20.5 h 40.5 40.5 v -20 -20 h -20 -20 v -20.5 -20.5 h -20.5 -20.5 v -20.5 -20.5 h 20.5 20.5 v -20.5 -20.5 h 20 20 v -20.5 -20.5 h -20 -20 v 20.5 20.5 h -41 -41 v 41 41 h -20.5 -20.5 v 40.5 40.5 h 20.5 20.5 v 20.5 20.5 h 20.5 20.5 v 20.5 20.5 h -41 -41 v -20.5 -20.5 h -40.5 -40.5 v -20.5 -20.5 h 20 20 v -61 -61 h 20.5 20.5 v -20.5 -20.5 h -40.5 -40.5 v -40.5 -40.5 h 40.5 40.5 v -41 -41 h 20.5 20.5 V 1000.5 980 h 20.5 20.5 V 959.5 939 H 1245.5 1225 V 918.5 898 h 41 41 v -20 -20 h 20 20 V 837.5 817 h 20.5 20.5 v 20.5 20.5 h 20.5 20.5 V 837.5 817 H 1408.5 1388 V 796.5 776 h 20.5 20.5 V 755.5 735 h 20.5 20.5 v 20.5 20.5 h 20.5 20.5 v 20.5 20.5 h 20.5 20.5 v 20.5 20.5 h -20.5 -20.5 v 20 20 h 20.5 20.5 v 20.5 20.5 h -41 -41 V 918.5 898 h -41 -41 v 20.5 20.5 h 20.5 20.5 v 20.5 20.5 h -41 -41 v 41 41 h 20.5 20.5 v -20.5 -20.5 h 20.5 20.5 V 1000.5 980 h 20.5 20.5 v 20.5 20.5 h 81.5 81.5 V 959.5 898 h -40.5 -40.5 v -20 -20 h 20 20 V 837.5 817 h -20 -20 V 796.5 776 H 1531.5 1511 V 755.5 735 H 1490.5 1470 V 714.5 694 h 20.5 20.5 v -20 -20 h -20.5 -20.5 v 20 20 H 1449.5 1429 V 653.5 613 h 20.5 20.5 V 592.5 572 H 1449.5 1429 V 551.5 531 h 20.5 20.5 V 510.5 490 H 1449.5 1429 V 469.5 449 H 1408.5 1388 V 429 409 H 1367.5 1347 V 388.5 368 h -20 -20 v 20.5 20.5 h -20.5 -20.5 v 40.5 40.5 h 20.5 20.5 V 510.5 531 H 1286.5 1266 V 551.5 572 H 1245.5 1225 V 551.5 531 H 1204.5 1184 V 510.5 490 h -20.5 -20.5 v 20.5 20.5 h -61 -61 V 510.5 490 H 1000.5 980 V 449.5 409 h 20.5 20.5 v 20 20 h 20.5 20.5 v -20 -20 h 20.5 20.5 v 20 20 h 20 20 v -20 -20 h -20 -20 V 368 327 H 1082.5 1062 V 306.5 286 h -41 -41 V 265.5 245 H 959.5 939 V 225 205 H 918.5 898 v 40.5 40.5 h 41 41 V 347.5 409 H 959.5 939 V 368 327 H 918.5 898 v 20.5 20.5 h -20 -20 v 40.5 40.5 h 20 20 V 429 409 H 918.5 939 V 449.5 490 H 898.5 858 V 510.5 531 H 898.5 939 V 551.5 572 H 918.5 898 v 20.5 20.5 h -20 -20 v 40.5 40.5 h 61 61 v 20.5 20.5 h 61.5 61.5 v 20.5 20.5 h 20 20 v 20.5 20.5 h 20.5 20.5 V 796.5 776 h 20.5 20.5 v 61 61 h -20.5 -20.5 v 20.5 20.5 h -20.5 -20.5 v 41 41 h -20 -20 V 959.5 898 H 1082.5 1062 V 857.5 817 h -41 -41 V 857.5 898 H 959.5 939 V 857.5 817 H 898.5 858 V 796.5 776 H 837.5 817 V 715 654 H 776 735 V 633.5 613 H 755.5 776 V 592.5 572 H 755.5 735 V 551.5 531 h 41 41 V 429 327 H 837.5 858 V 306.5 286 H 796.5 735 V 306.5 327 H 755.5 776 V 408.5 490 H 755.5 735 V 429 368 H 694.5 654 V 388.5 409 H 633.5 613 v 20 20 h 20.5 20.5 v 41 41 h 20 20 V 551.5 572 H 714.5 735 V 592.5 613 H 714.5 694 V 633.5 654 H 674 654 V 633.5 613 H 633.5 613 V 572 531 H 551.5 490 v 20.5 20.5 h 41 41 v 41 41 h 41 41 v 20 20 h 20 20 v 41 41 H 674 654 V 796.5 817 H 633.5 613 V 796.5 776 H 592.5 572 V 755.5 735 H 592.5 613 V 714.5 694 H 551.5 490 V 674 654 H 469.5 449 v 20 20 h -61 -61 v 20.5 20.5 h -41 -41 v 41 41 H 265.5 286 V 837.5 858 H 306.5 327 V 837.5 817 H 347.5 368 V 857.5 898 H 490.5 613 V 918.5 939 H 592.5 572 v 20.5 20.5 h 20.5 20.5 v 20.5 20.5 H 633.5 654 V 1000.5 980 H 633.5 613 V 959.5 939 H 633.5 654 V 918.5 898 H 694.5 735 V 918.5 939 H 714.5 694 v 20.5 20.5 h 20.5 20.5 v 20.5 20.5 H 755.5 776 V 1000.5 980 H 857.5 939 V 959.5 939 h 20.5 20.5 v 20.5 20.5 h 20.5 20.5 V 959.5 939 h 20.5 20.5 v 61.5 61.5 h 20.5 20.5 v 20.5 20.5 h -20.5 -20.5 v 40.5 40.5 h -41 -41 v 41 41 h -41 -41 v 40.5 40.5 h 20.5 20.5 v 20.5 20.5 h 41 41 v 20.5 20.5 H 1000.5 980 v 20.5 20.5 H 959.5 939 v 20.5 20.5 H 918.5 898 v -20.5 -20.5 h -20 -20 v 20.5 20.5 h 20 20 v 20.5 20.5 h 20.5 20.5 v 20 20 h 20.5 20.5 z m -41,-40.5 V 1511 h 20.5 20.5 v -20.5 -20.5 h 20.5 20.5 v 20.5 20.5 H 1000.5 980 v 20.5 20.5 H 959.5 939 Z m 123,-82 V 1429 h 20.5 20.5 v 20.5 20.5 h -20.5 -20.5 z m 245,0 V 1429 h 20 20 v 20.5 20.5 h -20 -20 z M 939,1327 v -20 h 20.5 20.5 v -20.5 -20.5 h 20.5 20.5 v -20.5 -20.5 h 41 41 v 41 41 h -20.5 -20.5 v 20 20 h -20.5 -20.5 v -20 -20 H 1000.5 980 v 20 20 H 959.5 939 Z m 123,-40.5 V 1266 h -20.5 -20.5 v 20.5 20.5 h 20.5 20.5 z m 163,0 V 1266 h 20.5 20.5 v 20.5 20.5 H 1245.5 1225 Z M 735,959.5 V 939 H 755.5 776 V 918.5 898 H 755.5 735 V 878 858 H 714.5 694 V 837.5 817 h 20.5 20.5 v -41 -41 h 20.5 20.5 v 20.5 20.5 h 20.5 20.5 v 61 61 H 857.5 898 V 918.5 939 H 837 776 V 959.5 980 H 755.5 735 Z m 449,0 V 939 h 20.5 20.5 v 20.5 20.5 h -20.5 -20.5 z m -204,-41 V 898 h 20.5 20.5 V 918.5 939 H 1000.5 980 Z M 613,878 V 858 H 592.5 572 V 837.5 817 h 20.5 20.5 v 20.5 20.5 h 20.5 20.5 v 20 20 H 633.5 613 Z M 409,837.5 V 817 H 388.5 368 V 796.5 776 H 347.5 327 V 796.5 817 H 306.5 286 V 796.5 776 H 306.5 327 V 755.5 735 h 61 61 V 714.5 694 h 20.5 20.5 v 20.5 20.5 h 20.5 20.5 v 61.5 61.5 h -61 -61 z m 40,-41 V 776 H 469.5 490 V 755.5 735 H 469.5 449 v 20.5 20.5 h -20 -20 v 20.5 20.5 h 20 20 z M 1266,817 V 776 H 1245.5 1225 V 755.5 735 H 1204.5 1184 V 674 613 H 1163.5 1143 V 633.5 654 H 1041 939 v -41 -41 h 20.5 20.5 v 20.5 20.5 h 41 41 V 592.5 572 h 20.5 20.5 v 20.5 20.5 h 20 20 V 592.5 572 h 20.5 20.5 v 20.5 20.5 h 20.5 20.5 v 61 61 h 20.5 20.5 V 714.5 694 h 20.5 20.5 v -20 -20 h -20.5 -20.5 v -41 -41 h 20.5 20.5 V 551.5 531 h 20 20 V 510.5 490 h 20.5 20.5 v 61.5 61.5 h -40.5 -40.5 v 20.5 20.5 h 40.5 40.5 v 20 20 h 20.5 20.5 V 714.5 735 H 1408.5 1388 V 714.5 694 h -40.5 -40.5 v 20.5 20.5 h 20 20 v 20.5 20.5 h -20 -20 v 41 41 H 1286.5 1266 Z M 1103,714.5 V 694 h 20 20 v 20.5 20.5 h -20 -20 z M 694,674 v -20 h 20.5 20.5 v 20 20 H 714.5 694 Z m 0,-163.5 V 490 H 714.5 735 V 510.5 531 H 714.5 694 Z m 245,0 V 490 H 959.5 980 V 510.5 531 H 959.5 939 Z M 654,429 v -20 h 20 20 v 20 20 h -20 -20 z m 653,0 v -20 h 20 20 v 20 20 h -20 -20 z M 1021,388.5 V 368 h 20.5 20.5 v 20.5 20.5 h -20.5 -20.5 z m 694,1102 V 1470 h -20.5 -20.5 v 20.5 20.5 h 20.5 20.5 z M 613,1388 v -41 h -41 -41 v 20.5 20.5 h 20.5 20.5 v 20.5 20.5 h 20.5 20.5 z m 1061,20.5 V 1388 h -20.5 -20.5 v 20.5 20.5 h 20.5 20.5 z m -1184,-61 V 1307 H 469.5 449 v -20.5 -20.5 h -20 -20 v 20.5 20.5 H 388.5 368 v 20 20 H 306.5 245 v 20.5 20.5 H 367.5 490 Z M 409,1327 v -20 h 20 20 v 20 20 h -20 -20 z m 1183,40.5 V 1347 h -20 -20 v -20 -20 h -20.5 -20.5 v 20 20 h 20.5 20.5 v 20.5 20.5 h 20 20 z m 82,-40.5 v -20 h -20.5 -20.5 v 20 20 h 20.5 20.5 z M 327,1245.5 V 1225 H 306.5 286 V 1204.5 1184 H 265.5 245 v -20.5 -20.5 h 20.5 20.5 v -20 -20 H 265.5 245 v 20 20 h -20 -20 v 20.5 20.5 h 20 20 v 20.5 20.5 h 20.5 20.5 v 20.5 20.5 h 20.5 20.5 z m 1225,0 V 1225 h -20.5 -20.5 v 20.5 20.5 h 20.5 20.5 z m -286,-163 V 1062 h 20.5 20.5 v -20.5 -20.5 h -20.5 -20.5 v 20.5 20.5 h -20.5 -20.5 v 20.5 20.5 h 20.5 20.5 z M 368,959.5 V 939 H 347.5 327 v 20.5 20.5 h 20.5 20.5 z m 81,0 V 939 h -20 -20 v 20.5 20.5 h 20 20 z m 1266,-41 V 898 h -20.5 -20.5 v 20.5 20.5 h 20.5 20.5 z m 0,-81 V 817 h -41 -41 v 20.5 20.5 h 41 41 z M 286,674 V 654 H 265.5 245 v 20 20 H 265.5 286 Z M 572,429 V 409 H 551.5 531 v 20 20 h 20.5 20.5 z m 653,0 v -20 h -20.5 -20.5 v 20 20 h 20.5 20.5 z m 41,-163.5 V 245 h -20.5 -20.5 v 20.5 20.5 h 20.5 20.5 z M 858,225 V 205 H 837.5 817 v 20 20 h 20.5 20.5 z m 612,0 v -20 h -20.5 -20.5 v 20 20 h 20.5 20.5 z M 776,1816.5 V 1796 h 20.5 20.5 v 20.5 20.5 H 796.5 776 Z m 122,0 V 1796 h 20.5 20.5 v 20.5 20.5 H 918.5 898 Z m 898,-285 V 1511 h 20.5 20.5 v 20.5 20.5 h -20.5 -20.5 z m -1551,-41 V 1470 h 20.5 20.5 v 20.5 20.5 H 265.5 245 Z M 735,1327 v -20 h 20.5 20.5 v 20 20 H 755.5 735 Z m -41,-102 v -41 H 674 654 V 1163.5 1143 H 633.5 613 v -20 -20 h 40.5 40.5 v 40.5 40.5 h 20.5 20.5 v -20.5 -20.5 h 20.5 20.5 v 20.5 20.5 H 755.5 735 v 41 41 H 714.5 694 Z M 409,1163.5 V 1143 h 20 20 v -20 -20 h -20 -20 v -20.5 -20.5 h 20 20 v 20.5 20.5 h 61.5 61.5 v 20 20 h -41 -41 v 20.5 20.5 H 449.5 409 Z m 1183,-449 V 694 h 41 41 V 674 654 H 1653.5 1633 V 633.5 613 h 41 41 v 20.5 20.5 h 40.5 40.5 V 633.5 613 h 20.5 20.5 v 20.5 20.5 h -20.5 -20.5 v 20 20 h 20.5 20.5 V 714.5 735 H 1796.5 1756 V 714.5 694 H 1735.5 1715 V 714.5 735 H 1653.5 1592 Z M 1715,531 v -41 h 61 61 v 41 41 h -61 -61 z M 164,306.5 V 164 H 306.5 449 V 306.5 449 H 306.5 164 Z M 409,307 V 205 H 307 205 V 307 409 H 307 409 Z M 245,306.5 V 245 H 306.5 368 V 306.5 368 H 306.5 245 Z m 1307,0 V 164 H 1694.5 1837 V 306.5 449 H 1694.5 1552 Z m 244,0.5 V 205 h -102 -102 v 102 102 h 102 102 z m -163,-0.5 V 245 h 61.5 61.5 v 61.5 61.5 h -61.5 -61.5 z"
       id="path1" />
  </g>
</svg>
