<?xml version="1.0" encoding="UTF-8" standalone="no"?>
<!-- Created with Inkscape (http://www.inkscape.org/) -->

<svg
   version="1.1"
   id="svg1"
   width="2000"
   height="2000"
   viewBox="0 0 2000 2000"
   sodipodi:docname="qr link to erfindergeist.org H30 stl.svg"
   inkscape:version="1.4.2 (f4327f4, 2025-05-13)"
   xmlns:inkscape="http://www.inkscape.org/namespaces/inkscape"
   xmlns:sodipodi="http://sodipodi.sourceforge.net/DTD/sodipodi-0.dtd"
   xmlns="http://www.w3.org/2000/svg"
   xmlns:svg="http://www.w3.org/2000/svg">
  <defs
     id="defs1" />
  <sodipodi:namedview
     id="namedview1"
     pagecolor="#ffffff"
     bordercolor="#000000"
     borderopacity="0.25"
     inkscape:showpageshadow="2"
     inkscape:pageopacity="0.0"
     inkscape:pagecheckerboard="0"
     inkscape:deskcolor="#d1d1d1"
     inkscape:zoom="0.5835"
     inkscape:cx="1000"
     inkscape:cy="1000"
     inkscape:window-width="2560"
     inkscape:window-height="1369"
     inkscape:window-x="-8"
     inkscape:window-y="-8"
     inkscape:window-maximized="1"
     inkscape:current-layer="g1" />
  <g
     inkscape:groupmode="layer"
     inkscape:label="Image"
     id="g1">
    <path
       style="fill:#000000"
       d="M 196,1634.5 V 1464 H 366.5 537 V 1634.5 1805 H 366.5 196 Z m 292,0.5 V 1513 H 366 244 v 122 122 h 122 122 z m -195,-0.5 V 1561 h 73.5 73.5 v 73.5 73.5 H 366.5 293 Z M 683,1781 v -24 h 24.5 24.5 v -24.5 -24.5 h 73.5 73.5 v -24.5 -24.5 h 48.5 48.5 v 73 73 H 951.5 927 v -24 -24 H 878.5 830 v 24 24 H 756.5 683 Z m 342,0 v -24 h 48.5 48.5 v -24.5 -24.5 h 24.5 24.5 v -24.5 -24.5 h -24.5 -24.5 v -73 -73 h -24 -24 v -24.5 -24.5 h 24 24 v 24.5 24.5 h 24.5 24.5 v -49 -49 h 24.5 24.5 v -24.5 -24.5 h -49 -49 v 24.5 24.5 h -24 -24 v -48.5 -48.5 h 48.5 48.5 v -49 -49 h 49 49 v -24.5 -24.5 h -24.5 -24.5 v -24.5 -24.5 h 24.5 24.5 v 24.5 24.5 h 24.5 24.5 v -24.5 -24.5 h 48.5 48.5 v -24 -24 h -48.5 -48.5 v -24.5 -24.5 h 48.5 48.5 v 24.5 24.5 h 24.5 24.5 v -24.5 -24.5 h 24.5 24.5 v 48.5 48.5 h 24 24 v -24 -24 h 24.5 24.5 v 24 24 h 24.5 24.5 v -24 -24 h 73 73 v 97.5 97.5 h -24 -24 v 24.5 24.5 h 24 24 v 24 24 h -24 -24 v 24.5 24.5 h 24 24 v 24.5 24.5 h -24 -24 v 24.5 24.5 h 24 24 v 48.5 48.5 h -24 -24 v 24.5 24.5 h -24.5 -24.5 v -49 -49 h -24.5 -24.5 v 49 49 h -49 -49 v -24.5 -24.5 h -48.5 -48.5 v 24.5 24.5 h 24.5 24.5 v 24.5 24.5 h 24 24 v 24.5 24.5 h -24 -24 v 24 24 h -24.5 -24.5 v -24 -24 h -24.5 -24.5 v 24 24 h -48.5 -48.5 v -24 -24 h 48.5 48.5 v -73.5 -73.5 h -24.5 -24.5 v -24.5 -24.5 h -24 -24 v 24.5 24.5 h -49 -49 v 24.5 24.5 h 73 73 v 24.5 24.5 h -48.5 -48.5 v 48.5 48.5 h -49 -49 v -24 -24 h -24.5 -24.5 v 24 24 h -48.5 -48.5 z m 293,-244 v -24 h -24.5 -24.5 v -24.5 -24.5 h 48.5 48.5 v -73 -73 h 24.5 24.5 v 24 24 h 97.5 97.5 v 49 49 h 73.5 73.5 v -24.5 -24.5 h -24.5 -24.5 v -24.5 -24.5 h -49 -49 v -24 -24 h 49 49 v -24.5 -24.5 h 24.5 24.5 v -24.5 -24.5 h -24.5 -24.5 v -24.5 -24.5 h 24.5 24.5 v -24.5 -24.5 h -24.5 -24.5 v 24.5 24.5 h -24.5 -24.5 v 24.5 24.5 h -122 -122 v -24.5 -24.5 h 24.5 24.5 v -24.5 -24.5 h -24.5 -24.5 v 24.5 24.5 h -48.5 -48.5 v 24.5 24.5 h -24.5 -24.5 v 24.5 24.5 h -24.5 -24.5 v 24.5 24.5 h 24.5 24.5 v -24.5 -24.5 h 24.5 24.5 v 48.5 48.5 h -24.5 -24.5 v 24.5 24.5 h -24.5 -24.5 v 49 49 h -24.5 -24.5 v 24 24 h 73.5 73.5 z m 195,-243.5 V 1269 h 48.5 48.5 v 24.5 24.5 h -48.5 -48.5 z m -147,-49 V 1220 h 24.5 24.5 v 24.5 24.5 h -24.5 -24.5 z m 293,0 V 1220 h 24.5 24.5 v 24.5 24.5 h -24.5 -24.5 z m -98,243.5 v -73 h -73 -73 v 73 73 h 73 73 z m -97,0.5 V 1464 h 24.5 24.5 v 24.5 24.5 h -24.5 -24.5 z m 146,-342 V 1122 h -24.5 -24.5 v 24.5 24.5 h 24.5 24.5 z m 49,634.5 v -24 h -24.5 -24.5 v -24.5 -24.5 h 24.5 24.5 v 24.5 24.5 h 49 49 v 24 24 h -49 -49 z M 586,1634.5 V 1561 h 24.5 24.5 v -24 -24 h 48.5 48.5 v -49 -49 H 707.5 683 v 24.5 24.5 H 634.5 586 V 1439.5 1415 H 439.5 293 v -48.5 -48.5 h 24.5 24.5 v -49 -49 h -49 -49 v 97.5 97.5 h -24 -24 v -97.5 -97.5 h 24 24 v -73 -73 H 220 196 V 976.5 879 H 244.5 293 V 854.5 830 H 244.5 196 V 805.5 781 h 24 24 v -49 -49 h 49 49 V 659 635 H 317.5 293 V 610.5 586 h 73.5 73.5 v 24.5 24.5 h 24 24 V 610.5 586 H 512.5 537 V 610.5 635 H 512.5 488 v 24 24 H 512.5 537 V 707.5 732 H 561.5 586 V 707.5 683 h 24.5 24.5 v 49 49 H 683.5 732 V 756.5 732 H 707.5 683 V 683.5 635 H 634.5 586 V 537.5 440 H 610.5 635 V 391 342 H 610.5 586 v -73 -73 h 24.5 24.5 v 24 24 h 24 24 v -24 -24 h 24.5 24.5 v 24 24 H 707.5 683 v 49 49 H 707.5 732 V 366.5 391 H 707.5 683 v 24.5 24.5 h 49 49 v 24 24 H 805.5 830 V 512.5 537 H 805.5 781 V 512.5 488 H 756.5 732 V 512.5 537 H 707.5 683 V 488.5 440 h -24 -24 v 73 73 h 24 24 V 610.5 635 H 707.5 732 V 610.5 586 H 756.5 781 V 610.5 635 H 805.5 830 V 610.5 586 H 854.5 879 V 610.5 635 H 854.5 830 V 683.5 732 H 805.5 781 v 24.5 24.5 h 24.5 24.5 v 49 49 H 805.5 781 V 830 781 H 756.5 732 v 73 73 h 49 49 v 24.5 24.5 h 24.5 24.5 v 24.5 24.5 h 24 24 v 24.5 24.5 h 97.5 97.5 v -24.5 -24.5 h -24 -24 V 1000.5 976 h -24.5 -24.5 v 24.5 24.5 H 1000.5 976 V 976 927 H 951.5 927 V 878.5 830 H 951.5 976 V 805.5 781 H 951.5 927 V 756.5 732 H 903 879 V 707.5 683 h 73 73 V 659 635 H 1000.5 976 V 610.5 586 H 951.5 927 V 561.5 537 H 903 879 V 488.5 440 H 927.5 976 V 415.5 391 H 951.5 927 V 366.5 342 H 878.5 830 V 366.5 391 H 805.5 781 V 317.5 244 h 24.5 24.5 v 24.5 24.5 h 73 73 V 268.5 244 H 951.5 927 v -24 -24 h 73.5 73.5 v 24 24 h -24.5 -24.5 v 49 49 H 1000.5 976 v 24.5 24.5 h 73 73 V 366.5 342 h 24.5 24.5 v 24.5 24.5 h -24.5 -24.5 v 24.5 24.5 h -73 -73 v 24 24 h 24.5 24.5 v 24.5 24.5 h 24.5 24.5 V 512.5 488 h 24 24 v 24.5 24.5 h 24.5 24.5 V 512.5 488 h 24.5 24.5 v 24.5 24.5 h 24.5 24.5 V 512.5 488 h 24.5 24.5 v -24 -24 h -49 -49 V 415.5 391 h 24.5 24.5 V 366.5 342 h -24.5 -24.5 v -73 -73 h 24.5 24.5 v 24 24 h 24.5 24.5 v -24 -24 h 48.5 48.5 v 97.5 97.5 h -48.5 -48.5 v 24.5 24.5 h 48.5 48.5 v 48.5 48.5 h -24.5 -24.5 v 73 73 h -24 -24 v -24 -24 h -24.5 -24.5 v 48.5 48.5 h 48.5 48.5 v 24.5 24.5 h 24.5 24.5 V 756.5 732 h 24.5 24.5 V 707.5 683 H 1439.5 1415 V 634.5 586 h 73 73 v 24.5 24.5 h -24 -24 v 24 24 h 24 24 v 24.5 24.5 h -48.5 -48.5 v 49 49 h 48.5 48.5 v 24.5 24.5 h -48.5 -48.5 v 24 24 h -49 -49 v -24 -24 h -24 -24 v 48.5 48.5 h -49 -49 V 951.5 927 h 24.5 24.5 V 878.5 830 h -24.5 -24.5 v 24.5 24.5 h -24.5 -24.5 v 24 24 h -24.5 -24.5 v 24.5 24.5 h 24.5 24.5 v 24.5 24.5 h 49 49 v 24.5 24.5 h -73.5 -73.5 v 24 24 h 24.5 24.5 v 24.5 24.5 h -24.5 -24.5 v 49 49 h -48.5 -48.5 v 24.5 24.5 H 1000.5 976 v -24.5 -24.5 h 24.5 24.5 v -24.5 -24.5 h 24.5 24.5 v -24.5 -24.5 h 24 24 v -24.5 -24.5 h -48.5 -48.5 v 24.5 24.5 H 1000.5 976 v 24.5 24.5 H 951.5 927 v 73 73 h 24.5 24.5 v 49 49 h 24.5 24.5 v 24.5 24.5 H 1000.5 976 v 48.5 48.5 h -73 -73 v 24.5 24.5 H 781 732 V 1634.5 1610 H 683.5 635 v 24.5 24.5 h 24 24 v 24.5 24.5 H 634.5 586 Z m 195,-49 V 1561 H 756.5 732 v 24.5 24.5 H 756.5 781 Z M 927,1537 v -24 H 951.5 976 V 1488.5 1464 H 951.5 927 v 24.5 24.5 h -24 -24 v 24 24 h 24 24 z m -97,-48.5 V 1464 H 854.5 879 V 1439.5 1415 H 854.5 830 v 24.5 24.5 H 805.5 781 v 24.5 24.5 h 24.5 24.5 z m -49,-98 V 1366 h 49 49 V 1317.5 1269 H 854.5 830 v 24.5 24.5 H 805.5 781 V 1293.5 1269 H 756.5 732 v -24.5 -24.5 h 49 49 V 1195.5 1171 H 805.5 781 V 1122.5 1074 H 732 683 V 1049.5 1025 H 707.5 732 V 1000.5 976 H 707.5 683 V 903 830 H 659 635 V 805.5 781 H 610.5 586 v 49 49 H 561.5 537 V 854.5 830 H 512.5 488 v 24.5 24.5 h 24.5 24.5 v 24 24 H 512.5 488 V 951.5 976 H 439.5 391 V 951.5 927 H 415.5 440 V 903 879 H 415.5 391 V 854.5 830 H 415.5 440 V 805.5 781 H 366.5 293 v 24.5 24.5 h 24.5 24.5 v 48.5 48.5 h -49 -49 v 73.5 73.5 h 24.5 24.5 v 48.5 48.5 h 24.5 24.5 v 24.5 24.5 h 73 73 v 24.5 24.5 h 24.5 24.5 v 24.5 24.5 H 512.5 488 v 24 24 h 49 49 v -73 -73 h 24.5 24.5 v -24.5 -24.5 h 24 24 v 49 49 h -24 -24 v 48.5 48.5 h 24 24 v -48.5 -48.5 h 24.5 24.5 v 73 73 h 24.5 24.5 z m -293,-195 V 1171 H 512.5 537 V 1146.5 1122 H 512.5 488 v -24 -24 h -24 -24 v 48.5 48.5 H 415.5 391 v -48.5 -48.5 h -49 -49 v -49 -49 h 24.5 24.5 v 24.5 24.5 h 73 73 V 1000.5 976 H 512.5 537 V 951.5 927 h 24.5 24.5 v -24 -24 h 24.5 24.5 v 24 24 H 610.5 586 v 24.5 24.5 h 24.5 24.5 v 49 49 h 24 24 v 24 24 h 24.5 24.5 v 24.5 24.5 H 707.5 683 v -24.5 -24.5 h -24 -24 v -24 -24 H 610.5 586 v -24.5 -24.5 h -49 -49 v 24.5 24.5 h 24.5 24.5 v 24 24 h 24.5 24.5 v 49 49 H 537 488 Z M 440,1342 v -24 h -49 -49 v 24 24 h 49 49 z M 927,1195.5 V 1171 H 951.5 976 V 1146.5 1122 H 927.5 879 V 1073.5 1025 H 854.5 830 V 1000.5 976 H 805.5 781 v 24.5 24.5 h 24.5 24.5 v 48.5 48.5 h 24.5 24.5 v 49 49 h 24 24 z M 1074,903 v -24 h 24 24 V 854.5 830 h 24.5 24.5 v -49 -49 h 24.5 24.5 V 683.5 635 h 24.5 24.5 V 610.5 586 h 24.5 24.5 V 561.5 537 h 24 24 V 512.5 488 h -24 -24 V 512.5 537 H 1293.5 1269 V 561.5 586 H 1244.5 1220 V 610.5 635 H 1195.5 1171 V 610.5 586 h -73 -73 V 561.5 537 H 1000.5 976 V 512.5 488 H 951.5 927 v 24.5 24.5 h 24.5 24.5 v 24.5 24.5 h 24.5 24.5 v 24.5 24.5 h 73 73 v 24 24 h -24.5 -24.5 v 73.5 73.5 h -24 -24 V 854.5 879 H 1049.5 1025 V 854.5 830 H 1000.5 976 v 48.5 48.5 h 49 49 z m 390,-48.5 V 830 h -49 -49 v 24.5 24.5 h 49 49 z m -146,-49 V 781 h -24.5 -24.5 v 24.5 24.5 h 24.5 24.5 z m -781,-49 V 732 H 512.5 488 V 756.5 781 H 512.5 537 Z M 1074,732 v -49 h -24.5 -24.5 v 49 49 h 24.5 24.5 z M 440,707.5 V 683 H 415.5 391 v 24.5 24.5 h 24.5 24.5 z m 341,-24 V 635 H 756.5 732 v 48.5 48.5 h 24.5 24.5 z m 585,-415 V 244 h -24 -24 v 24.5 24.5 h 24 24 z M 1025,1659 v -49 h 24.5 24.5 v 49 49 h -24.5 -24.5 z m 536,-658.5 V 976 h -24 -24 V 951.5 927 h 24 24 v 24.5 24.5 h 49 49 V 951.5 927 h -24.5 -24.5 v -24 -24 h 24.5 24.5 V 854.5 830 h 24.5 24.5 V 805.5 781 h -49 -49 v -73 -73 h 24.5 24.5 V 610.5 586 h 73 73 v 48.5 48.5 h -24 -24 v 73.5 73.5 h 24 24 v 24.5 24.5 h -24 -24 v 48.5 48.5 h 24 24 v 24.5 24.5 h -24 -24 V 1000.5 976 h -24.5 -24.5 v 24.5 24.5 h -73.5 -73.5 z m 196,-146 V 830 h -24.5 -24.5 v 24.5 24.5 h 24.5 24.5 z M 196,366.5 V 196 H 366.5 537 V 366.5 537 H 366.5 196 Z M 488,366 V 244 H 366 244 v 122 122 h 122 122 z m -195,0.5 V 293 H 366.5 440 V 366.5 440 H 366.5 293 Z m 1171,0 V 196 H 1634.5 1805 V 366.5 537 H 1634.5 1464 Z M 1757,366 V 244 h -122 -122 v 122 122 h 122 122 z m -196,0.5 V 293 h 73.5 73.5 v 73.5 73.5 h -73.5 -73.5 z"
       id="path1" />
  </g>
</svg>
