<?xml version="1.0" encoding="UTF-8" standalone="no"?>
<!-- Created with Inkscape (http://www.inkscape.org/) -->

<svg
   version="1.1"
   id="svg1"
   width="2000"
   height="2000"
   viewBox="0 0 2000 2000"
   sodipodi:docname="qr link to paypal donate H30 stl.svg"
   inkscape:version="1.4.2 (f4327f4, 2025-05-13)"
   xmlns:inkscape="http://www.inkscape.org/namespaces/inkscape"
   xmlns:sodipodi="http://sodipodi.sourceforge.net/DTD/sodipodi-0.dtd"
   xmlns="http://www.w3.org/2000/svg"
   xmlns:svg="http://www.w3.org/2000/svg">
  <defs
     id="defs1" />
  <sodipodi:namedview
     id="namedview1"
     pagecolor="#ffffff"
     bordercolor="#000000"
     borderopacity="0.25"
     inkscape:showpageshadow="2"
     inkscape:pageopacity="0.0"
     inkscape:pagecheckerboard="0"
     inkscape:deskcolor="#d1d1d1"
     inkscape:zoom="0.5835"
     inkscape:cx="1000"
     inkscape:cy="1000"
     inkscape:window-width="2560"
     inkscape:window-height="1369"
     inkscape:window-x="-8"
     inkscape:window-y="-8"
     inkscape:window-maximized="1"
     inkscape:current-layer="g1" />
  <g
     inkscape:groupmode="layer"
     inkscape:label="Image"
     id="g1">
    <path
       style="fill:#000000"
       d="M 151,1717.5 V 1585 H 283.5 416 V 1717.5 1850 H 283.5 151 Z m 227,0 V 1623 H 283.5 189 v 94.5 94.5 h 94.5 94.5 z m -151,0 V 1661 h 56.5 56.5 v 56.5 56.5 H 283.5 227 Z M 491,1831 v -19 h 38 38 v -19 -19 h -57 -57 v -19 -19 h 19 19 v -18.5 -18.5 h -19 -19 v -38 -38 h 19 19 v 38 38 h 19 19 v -19 -19 h 19 19 v -19 -19 h 37.5 37.5 v -19 -19 h -19 -19 v -56.5 -56.5 h 19 19 v 56.5 56.5 h 19 19 v -37.5 -37.5 h 37.5 37.5 v -38 -38 h -19 -19 v 19 19 H 698.5 680 v -37.5 -37.5 h -38 -38 v 18.5 18.5 H 528.5 453 v 19 19 h 38 38 v 19 19 h 19 19 v 19 19 h -19 -19 v 18.5 18.5 h -38 -38 v -18.5 -18.5 h 38 38 v -19 -19 h -38 -38 v -19 -19 H 415.5 378 v -19 -19 H 415.5 453 V 1415.5 1397 H 396.5 340 v 75.5 75.5 H 302.5 265 v -19 -19 h -38 -38 v 19 19 h -19 -19 v -19 -19 h 19 19 v -19 -19 h 56.5 56.5 v -19 -19 H 283.5 265 v -18.5 -18.5 h -19 -19 v 18.5 18.5 h -19 -19 v -37.5 -37.5 h 38 38 v -19 -19 H 283.5 302 V 1302.5 1284 H 245.5 189 v -19 -19 h -19 -19 v -19 -19 h 19 19 v -19 -19 h 19 19 v 19 19 h 19 19 v -37.5 -37.5 h 37.5 37.5 v 18.5 18.5 h 19 19 v -18.5 -18.5 h 19 19 v -19 -19 h -57 -57 v -38 -38 H 283.5 265 V 1000.5 982 h -19 -19 v 18.5 18.5 H 189 151 V 981.5 944 h 57 57 v 19 19 h 18.5 18.5 v -38 -38 h 19 19 V 868.5 831 H 321 302 V 849.5 868 H 283.5 265 v 19 19 h -38 -38 v -19 -19 h 19 19 V 830.5 793 h 19 19 v 19 19 H 283.5 302 V 793 755 H 245.5 189 v 38 38 h -19 -19 v -38 -38 h 19 19 V 736 717 H 170 151 V 679.5 642 h 38 38 v 19 19 h 37.5 37.5 v 37.5 37.5 h 19 19 v 38 38 h 56.5 56.5 v 18.5 18.5 h 19 19 V 849.5 831 h 38 38 V 812 793 H 585.5 604 V 755 717 H 585.5 567 V 698.5 680 h 37.5 37.5 v 56.5 56.5 h -19 -19 v 19 19 h 19 19 v 18.5 18.5 h 19 19 V 849.5 831 H 698.5 717 V 812 793 H 698.5 680 V 774 755 H 698.5 717 V 717.5 680 H 698.5 680 V 661 642 H 642 604 V 604.5 567 H 585.5 567 v -38 -38 h -19 -19 v -19 -19 h 19 19 V 434.5 416 h -19 -19 v -19 -19 h -19 -19 v 19 19 h -19 -19 v -19 -19 h 19 19 V 340 302 H 472 453 V 283.5 265 h 19 19 v -38 -38 h -19 -19 v -19 -19 h 57 57 v 19 19 h -19 -19 v 56.5 56.5 h 19 19 V 264.5 227 h 18.5 18.5 v 19 19 h 19 19 V 283.5 302 H 679.5 717 V 264.5 227 H 679.5 642 v -38 -38 h 19 19 v 19 19 h 18.5 18.5 v -19 -19 h 19 19 v 19 19 h -19 -19 v 19 19 H 792.5 868 V 208 189 H 849.5 831 v -19 -19 h 18.5 18.5 v 19 19 h 19 19 v -19 -19 h 19 19 v 38 38 h -38 -38 v 19 19 H 849.5 831 v 37.5 37.5 h 37.5 37.5 v -19 -19 h 38 38 V 264.5 227 h 18.5 18.5 v 37.5 37.5 h 38 38 V 283.5 265 h 19 19 v -19 -19 h 18.5 18.5 v 37.5 37.5 h -18.5 -18.5 v 19 19 h 18.5 18.5 v 38 38 h -18.5 -18.5 v -19 -19 h -19 -19 v 56.5 56.5 h 19 19 v -19 -19 h 37.5 37.5 V 415.5 378 h 19 19 v -19 -19 h -19 -19 v -19 -19 h 19 19 V 283.5 265 h -19 -19 v -38 -38 h -19 -19 v -19 -19 h 38 38 v 19 19 h 19 19 v -19 -19 h 37.5 37.5 v 19 19 h -19 -19 v 38 38 h -18.5 -18.5 v 18.5 18.5 h 18.5 18.5 v 57 57 h 19 19 v -38 -38 h 37.5 37.5 V 321 302 H 1396.5 1359 V 264.5 227 h 19 19 v 19 19 h 18.5 18.5 v 18.5 18.5 h 19 19 V 245.5 189 h 19 19 v -19 -19 h 19 19 v 19 19 h -19 -19 v 38 38 h 19 19 v 37.5 37.5 h -57 -57 v 19 19 h 19 19 v 19 19 h 19 19 v -19 -19 h 19 19 v 37.5 37.5 h 18.5 18.5 v 19 19 h 38 38 v 19 19 h 19 19 v -38 -38 h 18.5 18.5 v 57 57 h -18.5 -18.5 v 37.5 37.5 h 56.5 56.5 v -19 -19 h -19 -19 V 566.5 529 h 19 19 v -38 -38 h 19 19 v 151 151 h -19 -19 v 19 19 h 19 19 v 37.5 37.5 h -19 -19 v 19 19 h 19 19 v 56.5 56.5 h -19 -19 v 19 19 h 19 19 v 75.5 75.5 h -19 -19 v -75.5 -75.5 h -19 -19 v -19 -19 h -37.5 -37.5 v 19 19 h 18.5 18.5 v 19 19 h -56.5 -56.5 v 37.5 37.5 h 19 19 v -18.5 -18.5 h 56.5 56.5 v 18.5 18.5 h -56.5 -56.5 v 38 38 h -19 -19 v 94 94 h -37.5 -37.5 v 38 38 h 18.5 18.5 v -19 -19 h 38 38 v 19 19 h 37.5 37.5 v 19 19 h 19 19 v -19 -19 h 19 19 v -19 -19 h -38 -38 v -19 -19 h 19 19 v -18.5 -18.5 h -37.5 -37.5 v -19 -19 h 18.5 18.5 v -19 -19 h 19 19 v -18.5 -18.5 h -19 -19 v -19 -19 h -18.5 -18.5 v -19 -19 h 18.5 18.5 v 19 19 h 57 57 v 56.5 56.5 h -19 -19 v 19 19 h 19 19 v 56.5 56.5 h -19 -19 v 19 19 h 19 19 v 56.5 56.5 h -19 -19 v 19 19 h 19 19 v 37.5 37.5 h -19 -19 v 19 19 h 19 19 v 19 19 h -38 -38 v -38 -38 h -19 -19 v -19 -19 h 19 19 v 19 19 h 19 19 v -37.5 -37.5 h -19 -19 v -38 -38 h -37.5 -37.5 v 19 19 h 18.5 18.5 v 19 19 h -18.5 -18.5 v 37.5 37.5 h -19 -19 v 19 19 h 19 19 v 19 19 h -38 -38 v -57 -57 h 19 19 v -18.5 -18.5 h -38 -38 v 75.5 75.5 h -18.5 -18.5 v -38 -38 h -19 -19 v 38 38 h -19 -19 v -19 -19 h -19 -19 v -19 -19 h -37.5 -37.5 v 38 38 h -19 -19 v -57 -57 h -18.5 -18.5 v 38 38 h -38 -38 v 19 19 h -19 -19 v -19 -19 h -37.5 -37.5 v 19 19 h -19 -19 v -38 -38 h -19 -19 v 19 19 H 1000.5 982 v 19 19 h -38 -38 v -19 -19 h -19 -19 v 19 19 H 811.5 755 v -19 -19 h -19 -19 v 19 19 H 660.5 604 v -19 -19 H 585.5 567 v 19 19 h -38 -38 z m 189,-38 v -19 h 75.5 75.5 v -19 -19 H 868.5 906 V 1698.5 1661 H 868.5 831 v -38 -38 h 18.5 18.5 v 19 19 h 19 19 v -19 -19 h -19 -19 v -18.5 -18.5 h 19 19 v -19 -19 h 19 19 v -19 -19 h 19 19 v -75.5 -75.5 h 37.5 37.5 v 19 19 h -19 -19 v 19 19 h 19 19 v -19 -19 h 19 19 v -37.5 -37.5 h 37.5 37.5 v 18.5 18.5 h 19 19 v 19 19 h 19 19 v 37.5 37.5 h 37.5 37.5 v -18.5 -18.5 h -18.5 -18.5 v -19 -19 h -19 -19 v -37.5 -37.5 h 19 19 v -19 -19 h 18.5 18.5 v 19 19 h 19 19 v 18.5 18.5 h 19 19 v 19 19 h 18.5 18.5 v 19 19 h -37.5 -37.5 v 18.5 18.5 h 19 19 v 19 19 h 18.5 18.5 v 38 38 h -37.5 -37.5 v -19 -19 h -19 -19 v 19 19 h -18.5 -18.5 v -19 -19 h -57 -57 v 19 19 h -18.5 -18.5 v -75.5 -75.5 h -19 -19 v 18.5 18.5 h -38 -38 v 38 38 h 19 19 v -19 -19 h 19 19 v 56.5 56.5 h 37.5 37.5 v 19 19 h -37.5 -37.5 v 38 38 h -38 -38 v 18.5 18.5 h 19 19 v 19 19 h 56.5 56.5 v 19 19 h 19 19 v -19 -19 h 19 19 v -19 -19 h 19 19 v -37.5 -37.5 h -19 -19 v -19 -19 h -19 -19 v -19 -19 h 75.5 75.5 v 19 19 h -19 -19 v 19 19 h 19 19 v -19 -19 h 19 19 v 38 38 h 18.5 18.5 v 37.5 37.5 h 38 38 v -19 -19 h -19 -19 v -18.5 -18.5 h -19 -19 v -19 -19 h 38 38 v -19 -19 h -19 -19 v -19 -19 h 19 19 v -56.5 -56.5 h -19 -19 v -19 -19 h 19 19 v -37.5 -37.5 h -38 -38 v -19 -19 h 57 57 v -18.5 -18.5 h 18.5 18.5 v -19 -19 h 19 19 v -19 -19 h -19 -19 v -56.5 -56.5 h -37.5 -37.5 v -19 -19 h -19 -19 v -19 -19 h 19 19 V 943.5 868 h 19 19 v 19 19 h 18.5 18.5 v -19 -19 h 19 19 V 849.5 831 h 38 38 v -19 -19 h -19 -19 v -19 -19 h -19 -19 V 698.5 642 h -19 -19 v -19 -19 h 19 19 V 585.5 567 h 19 19 v -19 -19 h -38 -38 v -19 -19 h -18.5 -18.5 v -19 -19 h -57 -57 V 415.5 378 h -18.5 -18.5 v 37.5 37.5 h 18.5 18.5 v 38 38 h -18.5 -18.5 v -19 -19 h -19 -19 v 19 19 h -19 -19 v -19 -19 h -18.5 -18.5 v -19 -19 h 18.5 18.5 V 434.5 416 h -18.5 -18.5 v -19 -19 h -19 -19 v 37.5 37.5 h -19 -19 v 19 19 h -19 -19 v 19 19 h -18.5 -18.5 v 19 19 h 18.5 18.5 V 585.5 604 H 1132.5 1095 V 547.5 491 h -19 -19 v 19 19 h -19 -19 V 510 491 H 981.5 944 v 19 19 h 19 19 v 19 19 H 963 944 V 585.5 604 H 925 906 V 585.5 567 H 887 868 V 585.5 604 H 849.5 831 V 566.5 529 H 868.5 906 V 510 491 H 887 868 V 472 453 H 849.5 831 v 19 19 h -19 -19 v 38 38 H 774 755 V 529 491 H 717.5 680 v 38 38 H 698.5 717 V 585.5 604 H 698.5 680 v 19 19 h 18.5 18.5 v 19 19 h 19 19 v 37.5 37.5 h -19 -19 v 19 19 h 57 57 v -19 -19 h 18.5 18.5 v -19 -19 h 38 38 v 19 19 h -19 -19 v 75.5 75.5 h 19 19 v -19 -19 h 37.5 37.5 v 19 19 h 38 38 v 19 19 h 37.5 37.5 v 19 19 h 38 38 v 18.5 18.5 h -75.5 -75.5 v 19 19 h 19 19 v 19 19 H 1019.5 906 V 1038.5 982 H 868.5 831 v -38 -38 h -19 -19 v 19 19 h -19 -19 v 19 19 h -19 -19 v -38 -38 h 19 19 V 887 868 H 717.5 680 v 19 19 H 661 642 V 887 868 H 623 604 V 849.5 831 H 585.5 567 v 18.5 18.5 h 18.5 18.5 v 19 19 h 19 19 v 19 19 h 19 19 v 19 19 H 642 604 V 963 944 H 585.5 567 v -19 -19 h -19 -19 v -19 -19 h -19 -19 v 19 19 h 19 19 v 38 38 h -19 -19 v 18.5 18.5 h 19 19 v 19 19 h -19 -19 v 19 19 h 19 19 v 56.5 56.5 h -19 -19 v -19 -19 H 472 453 V 1151.5 1133 H 434.5 416 v 18.5 18.5 h -19 -19 v 19 19 h 19 19 v -19 -19 h 18.5 18.5 v 19 19 h 19 19 v 56.5 56.5 H 434.5 378 v 19 19 h 37.5 37.5 v 19 19 h 19 19 v -19 -19 h 56.5 56.5 v -19 -19 h 19 19 v 19 19 h 19 19 v 19 19 h 18.5 18.5 v -56.5 -56.5 h 19 19 v 18.5 18.5 h 38 38 v -18.5 -18.5 h 18.5 18.5 v -19 -19 H 849.5 831 v -38 -38 h 37.5 37.5 v 19 19 h 19 19 v -19 -19 h 19 19 v 19 19 h 18.5 18.5 v 38 38 H 962.5 906 v 18.5 18.5 h -19 -19 v 19 19 h 19 19 v -19 -19 h 19 19 v 75.5 75.5 H 925 906 V 1434.5 1397 H 868.5 831 v 18.5 18.5 h -19 -19 v 38 38 h 19 19 v 19 19 h -19 -19 v 18.5 18.5 h -19 -19 v -18.5 -18.5 h -19 -19 v 18.5 18.5 H 698.5 680 v 19 19 h -19 -19 v 19 19 h 19 19 v -19 -19 h 56.5 56.5 v 19 19 h -38 -38 v 37.5 37.5 H 698.5 680 V 1717.5 1699 H 604.5 529 v 18.5 18.5 h 37.5 37.5 v 19 19 h 19 19 v 19 19 h 19 19 z m 75,-75.5 V 1699 h 19 19 v 18.5 18.5 h -19 -19 z m 340,0 V 1699 h 56.5 56.5 v -19 -19 h 19 19 v 19 19 h -19 -19 v 18.5 18.5 H 1151.5 1095 Z M 1397,1604 v -19 h 18.5 18.5 v 19 19 h -18.5 -18.5 z m -227,-37.5 V 1548 h 19 19 v 18.5 18.5 h -19 -19 z M 831,1491 v -19 h 37.5 37.5 v 19 19 H 868.5 831 Z M 529,1264.5 V 1208 h 37.5 37.5 v -19 -19 h 38 38 v -75.5 -75.5 h 18.5 18.5 v 57 57 h 38 38 v -19 -19 H 774 755 V 1038.5 982 h 38 38 v 18.5 18.5 h 18.5 18.5 v 19 19 H 849.5 831 v 56.5 56.5 h -19 -19 v 19 19 h -38 -38 v 19 19 H 698.5 680 v -19 -19 h -38 -38 v 19 19 h 19 19 v 19 19 h 19 19 v 18.5 18.5 h -19 -19 v -18.5 -18.5 h -19 -19 v 18.5 18.5 H 566.5 529 Z M 717,1189 v -19 H 698.5 680 v 19 19 h 18.5 18.5 z m 114,-151 v -19 h -19 -19 v 19 19 h 19 19 z m 566,264.5 V 1284 h 18.5 18.5 v 18.5 18.5 H 1415.5 1397 Z M 793,1265 v -19 h 19 19 v 19 19 h -19 -19 z m 264,0 v -19 h 19 19 v 19 19 h -19 -19 z m 151,0 v -19 h -37.5 -37.5 v -19 -19 h -19 -19 v -19 -19 H 1038.5 982 v -18.5 -18.5 h 56.5 56.5 v 18.5 18.5 h 19 19 v 19 19 h 18.5 18.5 v -37.5 -37.5 h -18.5 -18.5 v -19 -19 h 37.5 37.5 v -19 -19 h 19 19 v -19 -19 h 19 19 V 981.5 944 h 18.5 18.5 v -19 -19 h -18.5 -18.5 v -19 -19 h -19 -19 v 19 19 h -38 -38 v -19 -19 h 38 38 V 830.5 793 h -19 -19 v -38 -38 h -37.5 -37.5 v 19 19 h 18.5 18.5 v 19 19 h -18.5 -18.5 v 56.5 56.5 h -19 -19 V 868.5 831 h -19 -19 v 18.5 18.5 h -19 -19 V 849.5 831 h 19 19 V 812 793 H 1019.5 982 v -38 -38 h 18.5 18.5 V 698.5 680 H 906 793 v -19 -19 h 37.5 37.5 v -19 -19 h 19 19 v 19 19 h 19 19 v -19 -19 h 56.5 56.5 v 19 19 h 56.5 56.5 v -19 -19 h 38 38 V 585.5 567 h -19 -19 v -19 -19 h 56.5 56.5 v 19 19 h 19 19 v -19 -19 h 19 19 v 19 19 h 18.5 18.5 v 37.5 37.5 h -56.5 -56.5 v 19 19 h 38 38 v 37.5 37.5 h 18.5 18.5 v -19 -19 h 38 38 V 698.5 680 h 37.5 37.5 v 37.5 37.5 h 19 19 v 19 19 h -37.5 -37.5 v -19 -19 h -57 -57 v 19 19 h -18.5 -18.5 v 19 19 h 18.5 18.5 v 18.5 18.5 h 19 19 v 38 38 h -37.5 -37.5 v 37.5 37.5 h 18.5 18.5 v 19 19 h 19 19 v 19 19 h -19 -19 v 19 19 h 38 38 v 18.5 18.5 h -19 -19 v 19 19 h -19 -19 v 19 19 h -37.5 -37.5 v -19 -19 h -37.5 -37.5 v 19 19 h -19 -19 v 19 19 h -19 -19 z m 38,-94.5 V 1133 h 19 19 v 18.5 18.5 h 37.5 37.5 v -18.5 -18.5 h 19 19 v 37.5 37.5 h 18.5 18.5 v -37.5 -37.5 h -18.5 -18.5 v -19 -19 h 18.5 18.5 v -19 -19 h -18.5 -18.5 v -19 -19 h -56.5 -56.5 v 19 19 h -19 -19 v 38 38 h -19 -19 v 37.5 37.5 h 19 19 z m 113,-94.5 v -19 h 19 19 v 19 19 h -19 -19 z m 0,-113 v -19 h -19 -19 v 19 19 h 19 19 z m 0,-76 v -19 h 19 19 V 849.5 831 h -19 -19 v -19 -19 h -37.5 -37.5 v 19 19 h 37.5 37.5 v 18.5 18.5 h -19 -19 v 19 19 h 19 19 z M 1095,774 v -19 h -19 -19 v -19 -19 h 19 19 V 698.5 680 h -19 -19 v -19 -19 h -19 -19 v 19 19 h 19 19 v 18.5 18.5 h -19 -19 v 19 19 h 19 19 v 19 19 h 19 19 z m 226,-38 V 717 H 1302.5 1284 V 660.5 604 h -19 -19 v 19 19 h -19 -19 v 37.5 37.5 h 38 38 v 19 19 h 18.5 18.5 z m 189,510 v -38 h 37.5 37.5 v 19 19 h -18.5 -18.5 v 19 19 h -19 -19 z M 906,1151.5 V 1133 h -19 -19 v -19 -19 h 19 19 v 19 19 h 19 19 v 18.5 18.5 H 925 906 Z M 567,1114 v -19 h 37.5 37.5 v 19 19 H 604.5 567 Z M 529,1000.5 V 982 h 19 19 v 18.5 18.5 h -19 -19 z m 981,-415 V 567 h -19 -19 v -19 -19 h 19 19 v 19 19 h 37.5 37.5 V 585.5 604 H 1547.5 1510 Z M 944,1793 v -19 h -19 -19 v 19 19 h 19 19 z m 415,-75.5 V 1699 h -19 -19 v 18.5 18.5 h 19 19 z m -302,-113 V 1548 H 1000.5 944 v 56.5 56.5 h 56.5 56.5 z m -75,-0.5 v -19 h 18.5 18.5 v 19 19 H 1000.5 982 Z m 679,0.5 V 1548 h -56.5 -56.5 v 56.5 56.5 h 56.5 56.5 z m -76,-0.5 v -19 h 19 19 v 19 19 h -19 -19 z m 227,-37.5 V 1548 h -19 -19 v 18.5 18.5 h 19 19 z M 340,1359 v -38 h -19 -19 v 38 38 h 19 19 z m 1245,19 v -19 h -18.5 -18.5 v 19 19 h 18.5 18.5 z m 227,-38 v -19 h -19 -19 v 19 19 h 19 19 z M 340,1265 v -19 h -19 -19 v 19 19 h 19 19 z m 76,0 v -19 h -19 -19 v 19 19 h 19 19 z m 37,-264.5 V 944 H 396.5 340 v 56.5 56.5 h 56.5 56.5 z m -75,0 V 982 h 19 19 v 18.5 18.5 h -19 -19 z m 679,0 V 944 H 1000.5 944 v 56.5 56.5 h 56.5 56.5 z m -75,0 V 982 h 18.5 18.5 v 18.5 18.5 H 1000.5 982 Z m 679,0 V 944 h -56.5 -56.5 v 56.5 56.5 h 56.5 56.5 z m -76,0 V 982 h 19 19 v 18.5 18.5 h -19 -19 z M 1774,963 v -19 h 19 19 v -19 -19 h -19 -19 v -19 -19 h -37.5 -37.5 v 19 19 h 18.5 18.5 v 38 38 h 19 19 z M 416,887 v -19 h -19 -19 v 19 19 h 19 19 z M 868,849.5 V 831 H 830.5 793 V 849.5 868 H 830.5 868 Z M 1774,774 v -57 h -19 -19 V 698.5 680 h -18.5 -18.5 v -19 -19 h -19 -19 v 19 19 h 19 19 v 37.5 37.5 h 18.5 18.5 v 38 38 h 19 19 z M 642,529 v -38 h -19 -19 v 38 38 h 19 19 z M 680,415.5 V 378 h 18.5 18.5 v 19 19 h 19 19 v 18.5 18.5 h 19 19 V 434.5 416 h 19 19 v -19 -19 h -19 -19 v 19 19 H 774 755 V 378 340 H 698.5 642 v -19 -19 h -19 -19 v 19 19 H 566.5 529 v 19 19 h 19 19 v 19 19 h 18.5 18.5 v -38 -38 h 19 19 v 56.5 56.5 h 19 19 z m 377,-19 V 340 H 1000.5 944 v 56.5 56.5 h 56.5 56.5 z m -75,0.5 v -19 h 18.5 18.5 v 19 19 H 1000.5 982 Z m -76,0 v -19 h -19 -19 v 19 19 h 19 19 z M 793,283.5 V 265 h -19 -19 v 18.5 18.5 h 19 19 z M 378,1529 v -19 h 19 19 v 19 19 H 397 378 Z M 1661,1302.5 V 1284 h 19 19 v 18.5 18.5 h -19 -19 z M 189,1114 v -19 h -19 -19 v -19 -19 h 19 19 v 19 19 h 19 19 v 19 19 H 208 189 Z M 378,774 v -19 h 37.5 37.5 v -19 -19 h 19 19 V 698.5 680 h 19 19 V 736.5 793 H 453.5 378 Z M 340,698.5 V 680 h 38 38 V 698.5 717 H 378 340 Z M 265,623 V 604 H 246 227 V 585.5 567 h 19 19 v -38 -38 h -19 -19 v -19 -19 h 19 19 v 19 19 h 18.5 18.5 v -19 -19 h 57 57 v 19 19 h -19 -19 v 19 19 h 19 19 v 19 19 h 18.5 18.5 v -19 -19 h 38 38 v 37.5 37.5 h 19 19 v 19 19 h -19 -19 v -19 -19 h -38 -38 v 19 19 H 415.5 378 v -19 -19 h 19 19 V 585.5 567 H 359 302 V 604.5 642 H 283.5 265 Z m 75,-113 v -19 h -19 -19 v 19 19 h 19 19 z M 151,547.5 V 491 h 19 19 V 547.5 604 H 170 151 Z M 453,472 v -19 h 19 19 v 19 19 H 472 453 Z M 151,283.5 V 151 H 283.5 416 V 283.5 416 H 283.5 151 Z m 227,0 V 189 H 283.5 189 v 94.5 94.5 h 94.5 94.5 z m -151,0 V 227 H 283.5 340 V 283.5 340 H 283.5 227 Z m 1358,0 V 151 H 1717.5 1850 V 283.5 416 H 1717.5 1585 Z m 227,0 V 189 h -94.5 -94.5 v 94.5 94.5 h 94.5 94.5 z m -151,0 V 227 h 56.5 56.5 V 283.5 340 H 1717.5 1661 Z M 1057,208 v -19 h -19 -19 v -19 -19 h 57 57 v 19 19 h -19 -19 v 19 19 h -19 -19 z"
       id="path1" />
  </g>
</svg>
